<?xml version="1.0" encoding="UTF-8" standalone="no"?>
<!-- Created with Inkscape (http://www.inkscape.org/) -->

<svg
   xmlns:dc="http://purl.org/dc/elements/1.1/"
   xmlns:cc="http://creativecommons.org/ns#"
   xmlns:rdf="http://www.w3.org/1999/02/22-rdf-syntax-ns#"
   xmlns:svg="http://www.w3.org/2000/svg"
   xmlns="http://www.w3.org/2000/svg"
   xmlns:sodipodi="http://sodipodi.sourceforge.net/DTD/sodipodi-0.dtd"
   xmlns:inkscape="http://www.inkscape.org/namespaces/inkscape"
   width="33.439999"
   height="33.439999"
   id="svg11899"
   version="1.1"
   inkscape:version="0.48.1 "
   sodipodi:docname="Neues Dokument 3">
  <defs
     id="defs11901" />
  <sodipodi:namedview
     id="base"
     pagecolor="#ffffff"
     bordercolor="#666666"
     borderopacity="1.0"
     inkscape:pageopacity="0.0"
     inkscape:pageshadow="2"
     inkscape:zoom="15.614565"
     inkscape:cx="16.72"
     inkscape:cy="16.719999"
     inkscape:document-units="px"
     inkscape:current-layer="layer1"
     showgrid="false"
     fit-margin-top="0"
     fit-margin-left="0"
     fit-margin-right="0"
     fit-margin-bottom="0"
     inkscape:window-width="1024"
     inkscape:window-height="708"
     inkscape:window-x="-4"
     inkscape:window-y="-4"
     inkscape:window-maximized="1" />
  <metadata
     id="metadata11904">
    <rdf:RDF>
      <cc:Work
         rdf:about="">
        <dc:format>image/svg+xml</dc:format>
        <dc:type
           rdf:resource="http://purl.org/dc/dcmitype/StillImage" />
        <dc:title></dc:title>
      </cc:Work>
    </rdf:RDF>
  </metadata>
  <g
     inkscape:label="Ebene 1"
     inkscape:groupmode="layer"
     id="layer1"
     transform="translate(-324.94286,-486.4311)">
    <g
       id="g8352"
       transform="matrix(1.25,0,0,-1.25,325.94036,503.1511)">
      <path
         inkscape:connector-curvature="0"
         d="m 0,0 c 0,6.947 5.631,12.578 12.578,12.578 6.947,0 12.578,-5.631 12.578,-12.578 0,-6.947 -5.631,-12.578 -12.578,-12.578 C 5.631,-12.578 0,-6.947 0,0"
         style="fill:#f68712;fill-opacity:1;fill-rule:nonzero;stroke:none"
         id="path8354" />
    </g>
    <g
       id="g8356"
       transform="matrix(1.25,0,0,-1.25,346.58486,511.76072)">
      <path
         inkscape:connector-curvature="0"
         d="m 0,0 c 0.238,-0.959 1.105,-1.671 2.139,-1.671 1.218,0 2.205,0.987 2.205,2.205 0,0.259 -0.043,0.508 -0.127,0.739 l -5.026,13.929 c -0.445,1.3 -1.677,2.235 -3.129,2.235 -1.451,0 -2.683,-0.935 -3.128,-2.235 L -12.092,1.275 c -0.082,-0.231 -0.127,-0.482 -0.127,-0.741 0,-1.218 0.987,-2.205 2.203,-2.205 1.036,0 1.903,0.712 2.141,1.671 l 0.529,1.89 c 0.09,0.339 0.399,0.59 0.766,0.59 l 2.642,0 2.645,10e-4 c 0.365,0 0.674,-0.252 0.764,-0.591 L 0,0 z"
         style="fill:#ffffff;fill-opacity:1;fill-rule:nonzero;stroke:none"
         id="path8358" />
    </g>
    <g
       id="g8360"
       transform="matrix(1.25,0,0,-1.25,339.64146,504.87097)">
      <path
         inkscape:connector-curvature="0"
         d="m 0,0 c -0.328,0 -0.594,0.266 -0.594,0.594 0,0.056 0.008,0.11 0.022,0.162 L 1.617,8.623 3.807,0.756 C 3.82,0.704 3.828,0.65 3.828,0.594 3.828,0.266 3.563,-0.003 3.234,-0.003 L 0,0 z"
         style="fill:#f68712;fill-opacity:1;fill-rule:nonzero;stroke:none"
         id="path8362" />
    </g>
  </g>
</svg>
