<?xml version="1.0" encoding="iso-8859-1"?>

<!DOCTYPE svg PUBLIC "-//W3C//DTD SVG 1.0//EN"    "http://www.w3.org/TR/2001/REC-SVG-20010904/DTD/svg10.dtd">

<svg  
xmlns="http://www.w3.org/2000/svg" 
xmlns:xlink="http://www.w3.org/1999/xlink" 
width="656" 
height="306.478" 
viewBox="-66 0 656 306.478" 
overflow="visible" 
enable-background="new -66 0 656 306.478"
xml:space="preserve"
>

<g id="Hamburg_Hafenfaehren">

  <polygon id="Blaues_Trapez" fill="#049ACC" points="363.89,306.478 160.111,306.478 0,0 524,0 "/>
  
  <path id="Welle" fill="#FFFFFF" d="M313.836,203.538c-14.333,0-25.629-4.554-38.71-9.827
  	c-14.918-6.003-31.822-12.821-54.285-12.821c-33.221,0-60.12,14.575-71.496,21.853l18.14,34.551
  	c3.051-2.189,25.564-17.588,53.356-17.588c14.939,0,26.453,4.643,39.779,10.011c14.696,5.923,31.359,12.637,53.216,12.637
  	c27.813,0,47.665-9.485,59.018-16.943l-16.422-36.118C355.418,190.233,340.664,203.538,313.836,203.538z"/>
  
  <g id="Frutiger_75_Black">
    <polygon fill="#FFFFFF" points="109.235,59.184 164.7,59.184 164.7,75.106 131.329,75.106 131.329,93.563 163.273,93.563 
    	163.273,109.486 131.329,109.486 131.329,143.38 109.24,143.38 109.24,59.184 "/>
    <path fill="#FFFFFF" d="M209.352,143.385c-0.116-3.375-0.476-6.631-0.476-9.891h-0.237c-4.871,7.839-10.81,11.338-19.597,11.338
    	c-12.231,0-23.157-6.152-23.157-19.787c0-19.18,20.542-21.473,31.944-21.473c3.444,0,7.244,0.363,9.98,0.844
    	c-0.116-8.569-6.415-10.857-14.134-10.857c-6.884,0-13.773,1.324-19.713,4.705l-0.36-14.721
    	c7.604-3.132,15.56-4.463,24.707-4.463c15.792,0,29.455,6.875,29.455,26.06v23.407c0,4.944,0.239,9.893,1.189,14.835h-19.602
    	V143.385z M176.457,55.445h17.103v17.37h-17.103V55.445z M194.625,130.36c8.079,0,13.184-7.481,13.184-14.842
    	c-2.731-0.121-5.823-0.365-9.023-0.365c-7.25,0-12.945,2.296-12.945,8.327C185.834,127.827,189.639,130.36,194.625,130.36z
    	 M203.536,55.445h17.102v17.37h-17.102V55.445z"/>
    <path fill="#FFFFFF" d="M236.833,52.911h21.378v36.912h0.237c4.634-6.517,11.4-10.739,20.668-10.739
    	c16.867,0,23.629,12.063,23.629,25.095v39.201h-21.374v-30.395c0-11.824-4.037-15.802-9.855-15.802
    	c-8.794,0-13.299,6.15-13.299,19.663v26.538h-21.378V52.911H236.833z"/>
    <path fill="#FFFFFF" d="M354.291,97.911c-2.369-0.722-4.748-0.722-7.245-0.722c-9.979,0-15.555,7.358-15.555,19.663v26.541
    	h-21.379V80.536h19.479v11.58h0.237c3.682-7.962,9.026-13.032,18.294-13.032c2.497,0,5.112,0.365,7.239,0.725L354.291,97.911z"/>
    <path fill="#FFFFFF" d="M374.768,118.292c1.186,8.689,7.714,12.068,18.171,12.068c5.813,0,12.466-1.332,18.882-4.828v15.318
    	c-6.89,2.774-14.722,3.982-22.687,3.982c-20.421,0-33.275-12.184-33.275-32.935c0-20.751,11.191-32.814,30.433-32.814
    	c22.923,0,31.233,16.526,31.233,35.226v3.978h-42.757V118.292z M398.279,105.987c0-7.237-3.331-13.148-11.878-13.148
    	c-7.719,0-11.405,5.911-11.874,13.148H398.279z"/>

  </g>

</g>

</svg>
